
<svg xmlns="http://www.w3.org/2000/svg" version="1.1" xmlns:xlink="http://www.w3.org/1999/xlink" preserveAspectRatio="none" x="0px" y="0px" width="512px" height="512px" viewBox="0 0 512 512">
<defs>
<radialGradient id="Gradient_1" gradientUnits="userSpaceOnUse" cx="0" cy="0" r="273.44999999999993" fx="0" fy="0" gradientTransform="matrix( 1.0000000000000002, 0, 0, 1.0000000000000002, 64.85,19.85) " spreadMethod="pad">
<stop  offset="0%" stop-color="#FDCE82"/>

<stop  offset="25.098039215686274%" stop-color="#FB9F09"/>

<stop  offset="100%" stop-color="#FE6125"/>
</radialGradient>

<radialGradient id="Gradient_2" gradientUnits="userSpaceOnUse" cx="0" cy="0" r="197.89999999999998" fx="0" fy="0" gradientTransform="matrix( 1, 0, 0, 1, 93.5,75.65) " spreadMethod="pad">
<stop  offset="0%" stop-color="#FFFFFF"/>

<stop  offset="25.098039215686274%" stop-color="#FDCA6C"/>

<stop  offset="63.13725490196079%" stop-color="#FCBB43"/>

<stop  offset="100%" stop-color="#FF8040"/>
</radialGradient>

<linearGradient id="Gradient_3" gradientUnits="userSpaceOnUse" x1="138.2125" y1="26.612499999999997" x2="130.7875" y2="106.3875" spreadMethod="pad">
<stop  offset="23.137254901960784%" stop-color="#AEA5D3"/>

<stop  offset="100%" stop-color="#000000"/>
</linearGradient>

<linearGradient id="Gradient_4" gradientUnits="userSpaceOnUse" x1="138.2125" y1="26.612499999999997" x2="130.7875" y2="106.3875" spreadMethod="pad">
<stop  offset="23.137254901960784%" stop-color="#FDF599"/>

<stop  offset="100%" stop-color="#000000"/>
</linearGradient>

<filter id="Filter_1" x="-20%" y="-20%" width="140%" height="140%" color-interpolation-filters="sRGB">
<feColorMatrix in="SourceGraphic" type="matrix" values="0 0 0 0 0.7333333333333333 0 0 0 0 0.023529411764705882 0 0 0 0 0.023529411764705882 0 0 0 1 0" result="result1"/>
</filter>

<filter id="Filter_2" x="-20%" y="-20%" width="140%" height="140%" color-interpolation-filters="sRGB">
<feColorMatrix in="SourceGraphic" type="matrix" values="0 0 0 0 0.4823529411764706 0 0 0 0 0.4235294117647059 0 0 0 0 0.7176470588235294 0 0 0 1 0" result="result1"/>
</filter>

<filter id="Filter_3" x="-20%" y="-20%" width="140%" height="140%" color-interpolation-filters="sRGB">
<feColorMatrix in="SourceGraphic" type="matrix" values="0 0 0 0 1 0 0 0 0 1 0 0 0 0 0 0 0 0 1 0" result="result1"/>
</filter>

<filter id="Filter_4" x="-20%" y="-20%" width="140%" height="140%" color-interpolation-filters="sRGB">
<feColorMatrix in="SourceGraphic" type="matrix" values="1 0 0 0 0 0 1 0 0 0 0 0 1 0 0 0 0 0 0.75 0" result="result1"/>
</filter>

<filter id="Filter_5" x="-20%" y="-20%" width="140%" height="140%" color-interpolation-filters="sRGB">
<feColorMatrix in="SourceGraphic" type="matrix" values="1 0 0 0 0 0 1 0 0 0 0 0 1 0 0 0 0 0 0.83 0" result="result1"/>
</filter>

<g id="Symbol_8_0_Layer0_0_FILL">
<path fill="#FFFFFF" stroke="none" d="
M -0.2 69.5
Q -4.1 56.269921875 -19.65 50.45 -22.15 49.740625 -24.7 49.4 -55.45 44.4255859375 -86.45 49 -122.2 54.2216796875 -156.65 64.1 -177.6 70.1560546875 -199.65 72.45 -190.2 75.1123046875 -180.7 77.75 -171.3 80.3802734375 -161.9 83.05 -150.65 86.3908203125 -139.45 89.85 -125.25 94.1052734375 -111.25 98.4 -97.95 102.5240234375 -84 105.35 -69.1 108.3396484375 -53.7 108 -36.9 107.67109375 -21.7 102.4 -13.45 99.566015625 -7.7 94.15 3.9 83.2857421875 -0.2 69.5 Z"/>
</g>

<g id="Symbol_2_0_Layer0_0_FILL">
<path fill="url(#Gradient_1)" stroke="none" d="
M 272.4 136.2
Q 272.4 79.8 232.5 39.9 192.6 0 136.2 0 79.8 0 39.9 39.9 0 79.8 0 136.2 0 192.6 39.9 232.5 79.8 272.4 136.2 272.4 192.6 272.4 232.5 232.5 272.4 192.6 272.4 136.2
M 222.9 49.55
Q 258.8048828125 85.4875 258.8 136.25 258.8048828125 187.0123046875 222.9 222.9 186.9873046875 258.8298828125 136.2 258.8 85.4625 258.8298828125 49.55 222.9 13.6451171875 187.0123046875 13.65 136.25 13.6451171875 85.4875 49.55 49.55 85.4625 13.6701171875 136.2 13.65 186.9873046875 13.6701171875 222.9 49.55 Z"/>

<path fill="url(#Gradient_2)" stroke="none" d="
M 258.8 136.25
Q 258.8048828125 85.4875 222.9 49.55 186.9873046875 13.6701171875 136.2 13.65 85.4625 13.6701171875 49.55 49.55 13.6451171875 85.4875 13.65 136.25 13.6451171875 187.0123046875 49.55 222.9 85.4625 258.8298828125 136.2 258.8 186.9873046875 258.8298828125 222.9 222.9 258.8048828125 187.0123046875 258.8 136.25 Z"/>
</g>

<g id="Symbol_12_0_Layer0_0_FILL">
<path fill="#1A1731" stroke="none" d="
M 68.15 114.75
Q 67.9791015625 114.8134765625 67.75 114.85 69.2958984375 114.7248046875 70.7 114.5
L 68.15 114.75
M 131.8 112.35
L 131.45 110.25
Q 131.495703125 110.5943359375 131.55 110.9 131.682421875 111.6396484375 131.8 112.35
M 16.35 47.75
L 15.75 47.75
Q 14.3763671875 47.75 13.2 47.2 12.8501953125 49.498046875 12.6 51.85 11.251953125 66.4392578125 12.3 82.6 13.394921875 98.8095703125 25.9 106.75 38.401953125 114.7466796875 56.75 115.5 57.78828125 115.53984375 61.1 115.3
L 61.1 114.95
Q 43.673046875 114.280078125 31.8 106.9 19.9126953125 99.5203125 17.1 88.35 14.295703125 77.175390625 15.2 58.7 15.4869140625 52.8080078125 16.35 47.75
M 98.65 88.25
Q 101.8673828125 82.0904296875 107.15 78.2 118.04453125 70.2357421875 124 81 117.6708984375 66.4466796875 105.2 75.8 99.65 80 96.3 86.65 90.7 97.7 82.95 106.85 78.1021484375 112.5517578125 69.4 114.5 69.1037109375 114.5822265625 68.75 114.65 69.9166015625 114.5525390625 71.15 114.4 71.2771484375 114.4083984375 71.35 114.4 80.9099609375 112.7869140625 86 106.95 93.35859375 98.4796875 98.65 88.25
M 106.15 41.6
Q 103.053515625 30.7869140625 94.3 24.3 82.95 15.95 65.85 13.55 51.0529296875 11.55078125 39.7 13.65 28.7279296875 15.67578125 21.65 25.8
L 23.9 25.8
Q 24.8884765625 25.8 25.75 26.05 32.072265625 19.5798828125 42.5 19.2 55.6978515625 18.706640625 69.75 20.55 85.99375 22.76953125 96.75 30.5 102.93984375 34.95234375 106.15 41.6
M 242.1 125.3
Q 237.3453125 136.6486328125 229.6 144.15 221.8431640625 151.69296875 214.7 153.05 207.601953125 154.4716796875 192.4 152 177.86875 149.658203125 164.05 145.3 148.5087890625 140.3908203125 139.95 131.15 134.138671875 124.8705078125 132.1 114.05 132.113671875 113.975 132.1 113.9 132.0564453125 113.9095703125 132 113.9 134.291015625 126.9248046875 139.75 133 148.75 142.95 165.1 148.25 179.65 152.95 194.95 155.5 210.9521484375 158.15 218.45 156.65 225.9388671875 155.15 234.1 147 242.2609375 138.9 247.3 126.65 250.9123046875 117.9259765625 253 111.45 252.1486328125 111.7 251.2 111.7
L 250.95 111.7
Q 249.113671875 111.7 247.65 110.75 245.689453125 116.9068359375 242.1 125.3
M 272.5 95.9
Q 279.3892578125 85.46484375 272.55 75 274.2517578125 88.13984375 266.05 96.8
L 257.2 102.7 257.2 105.7
Q 257.2 106.0107421875 257.15 106.3
L 272.5 95.9
M 255.45 82.85
Q 256.098828125 83.498828125 256.5 84.25 255.1599609375 67.727734375 245.3 60.2 234.73984375 52.109375 220.45 46.65 206.2099609375 41.2404296875 191.35 39.2 176.546484375 37.203125 160.15 40.8 146.4 43.8 137.7 52.9 131.65 59.15 123.85 60.55 114.0201171875 62.352734375 109.95 55.9 112.94609375 66.2029296875 124.85 64.05 132.26875 62.7833984375 138 57 146.288671875 48.5751953125 159.35 45.8 174.9197265625 42.4603515625 189 44.3 203.095703125 46.1916015625 216.65 51.2 230.1978515625 56.257421875 240.25 63.75 248.24765625 69.7220703125 250.05 81.15 250.5064453125 81.1 250.95 81.1
L 251.2 81.1
Q 253.7 81.1 255.45 82.85 Z"/>

<path fill="url(#Gradient_3)" stroke="none" d="
M 68.15 114.75
L 66.75 114.9
Q 67.2845703125 114.890234375 67.75 114.85 67.9791015625 114.8134765625 68.15 114.75 Z"/>

<path fill="url(#Gradient_4)" stroke="none" d="
M 256.95 85.4
Q 256.8041015625 84.79921875 256.5 84.25 256.098828125 83.498828125 255.45 82.85 253.7 81.1 251.2 81.1
L 250.95 81.1
Q 250.5064453125 81.1 250.05 81.15 248.24765625 69.7220703125 240.25 63.75 230.1978515625 56.257421875 216.65 51.2 203.095703125 46.1916015625 189 44.3 174.9197265625 42.4603515625 159.35 45.8 146.288671875 48.5751953125 138 57 132.26875 62.7833984375 124.85 64.05 112.94609375 66.2029296875 109.95 55.9 108.0734375 52.8599609375 107.45 48 107.0240234375 44.6359375 106.15 41.6 102.93984375 34.95234375 96.75 30.5 85.99375 22.76953125 69.75 20.55 55.6978515625 18.706640625 42.5 19.2 32.072265625 19.5798828125 25.75 26.05 24.8884765625 25.8 23.9 25.8
L 21.65 25.8 15.75 25.8
Q 13.25 25.8 11.5 27.55 9.75 29.3 9.75 31.8
L 9.75 41.75
Q 9.75 44.25 11.5 46 12.2884765625 46.7884765625 13.2 47.2 14.3763671875 47.75 15.75 47.75
L 16.35 47.75
Q 15.4869140625 52.8080078125 15.2 58.7 14.295703125 77.175390625 17.1 88.35 19.9126953125 99.5203125 31.8 106.9 43.673046875 114.280078125 61.1 114.95 63.047265625 115.0470703125 64.85 115 66.6365234375 114.8521484375 68.75 114.65 69.1037109375 114.5822265625 69.4 114.5 78.1021484375 112.5517578125 82.95 106.85 90.7 97.7 96.3 86.65 99.65 80 105.2 75.8 117.6708984375 66.4466796875 124 81 124.1001953125 81.1361328125 124.15 81.25 124.678515625 82.2173828125 125.15 83.3 128.823046875 96.8189453125 131.45 110.4 131.4494140625 110.32734375 131.45 110.25
L 131.8 112.35 132.05 113.75
Q 132.086328125 113.837890625 132.1 113.9 132.113671875 113.975 132.1 114.05 134.138671875 124.8705078125 139.95 131.15 148.5087890625 140.3908203125 164.05 145.3 177.86875 149.658203125 192.4 152 207.601953125 154.4716796875 214.7 153.05 221.8431640625 151.69296875 229.6 144.15 237.3453125 136.6486328125 242.1 125.3 245.689453125 116.9068359375 247.65 110.75 249.113671875 111.7 250.95 111.7
L 251.2 111.7
Q 252.1486328125 111.7 253 111.45 254.3640625 111.0359375 255.45 109.95 256.982421875 108.417578125 257.15 106.3 257.2 106.0107421875 257.2 105.7
L 257.2 102.7 266.05 96.8
Q 274.2517578125 88.13984375 272.55 75 272.43125 74.88984375 272.3 74.75 269.770703125 77.0591796875 272.45 74.25 261.9728515625 83.174609375 256.95 85.4 Z"/>
</g>

<g id="Symbol_13_0_Layer0_0_FILL">
<path fill="#000000" stroke="none" d="
M 480.85 322.65
Q 483.85 339.15 471.5 343.35 450.1 350.65 466 355.85 480.6 353.45 483.5 339.25 485.55 329.3 480.85 322.65 Z"/>
</g>

<path id="Symbol_2_0_Layer0_0_1_STROKES" stroke="#FF9900" stroke-width="1" stroke-linejoin="round" stroke-linecap="round" fill="none" d="
M 272.4 136.2
Q 272.4 192.6 232.5 232.5 192.6 272.4 136.2 272.4 79.8 272.4 39.9 232.5 0 192.6 0 136.2 0 79.8 39.9 39.9 79.8 0 136.2 0 192.6 0 232.5 39.9 272.4 79.8 272.4 136.2 Z
M 258.8 136.25
Q 258.8048828125 187.0123046875 222.9 222.925 186.9873046875 258.8298828125 136.225 258.825 85.4625 258.8298828125 49.55 222.925 13.6451171875 187.0123046875 13.65 136.25 13.6451171875 85.4875 49.55 49.575 85.4625 13.6701171875 136.225 13.675 186.9873046875 13.6701171875 222.9 49.575 258.8048828125 85.4875 258.8 136.25 Z"/>
</defs>

<g transform="matrix( 2.05413818359375, 0, 0, 2.0545654296875, 0,0) ">
<g transform="matrix( 0.839111328125, 0.0759429931640625, -0.0759429931640625, 0.839111328125, 20.7,0) ">
<g transform="matrix( -0.940673828125, -0.3297119140625, -0.3297119140625, 0.940673828125, 225.55,142.05) ">
<g transform="matrix( 1, 0, 0, 1, 199.65,-46.8) ">
<use filter="url(#Filter_1)" xlink:href="#Symbol_8_0_Layer0_0_FILL"/>
</g>
</g>

<g transform="matrix( 0.6805419921875, 0.730621337890625, 0.730621337890625, -0.6805419921875, 51.35,65.05) ">
<g transform="matrix( 1, 0, 0, 1, 199.65,-46.8) ">
<use filter="url(#Filter_2)" xlink:href="#Symbol_8_0_Layer0_0_FILL"/>
</g>
</g>

<g transform="matrix( -0.5618743896484375, -0.8250732421875, 0.8250732421875, -0.5618743896484375, 156.2,225.95) ">
<g transform="matrix( 1, 0, 0, 1, 199.65,-46.8) ">
<use filter="url(#Filter_3)" xlink:href="#Symbol_8_0_Layer0_0_FILL"/>
</g>
</g>

<g transform="matrix( 1, 0, 0, 1, 0,0) ">
<g transform="matrix( 1, 0, 0, 1, 0,0) ">
<use filter="url(#Filter_4)" xlink:href="#Symbol_2_0_Layer0_0_FILL"/>

<use filter="url(#Filter_4)" xlink:href="#Symbol_2_0_Layer0_0_1_STROKES"/>
</g>
</g>
</g>

<g transform="matrix( 0.8439178466796875, 0, 0, 0.8439178466796875, 9.55,37.6) ">
<g transform="matrix( 1, 0, 0, 1, 0,0) ">
<use filter="url(#Filter_5)" xlink:href="#Symbol_12_0_Layer0_0_FILL"/>
</g>
</g>

<g transform="matrix( -0.28900146484375, 0.79193115234375, 0.79193115234375, 0.28900146484375, 108.95,186.6) ">
<g transform="matrix( 1, 0, 0, 1, -459.2,-322.65) ">
<use xlink:href="#Symbol_13_0_Layer0_0_FILL"/>
</g>
</g>
</g>
</svg>
